<?xml version="1.0" encoding="UTF-8"?>
<svg version="1.1" xmlns="http://www.w3.org/2000/svg" width="1080" height="401">
<path d="M0 0 C35.31 0 70.62 0 107 0 C106 11 106 11 103 28 C78.25 28.33 53.5 28.66 28 29 C26.35 39.23 24.7 49.46 23 60 C46.76 60 70.52 60 95 60 C94 74 94 74 91 89 C66.91 89 42.82 89 18 89 C16.515 99.89 16.515 99.89 15 111 C14.12562005 116.63051427 13.23897945 122.25352764 12.3125 127.875 C11.549375 132.53625 10.78625 137.1975 10 142 C-0.56 142 -11.12 142 -22 142 C-20.87497477 128.4996972 -20.87497477 128.4996972 -20.12719727 123.75572205 C-19.95898468 122.67496399 -19.79077209 121.59420593 -19.61746216 120.48069763 C-19.34468948 118.77116661 -19.34468948 118.77116661 -19.06640625 117.02709961 C-18.8727951 115.79146271 -18.67918396 114.55582581 -18.47970581 113.28274536 C-17.95399213 109.93366538 -17.42445505 106.58523627 -16.89295578 103.23707271 C-16.33538829 99.7195761 -15.78239672 96.20135977 -15.22875977 92.6832428 C-14.30035407 86.78810911 -13.36855472 80.89351984 -12.43457031 74.99926758 C-11.35510307 68.18669193 -10.2805473 61.37335565 -9.20868397 54.55957979 C-8.17477066 47.98749292 -7.13793446 41.41587072 -6.09957886 34.84448433 C-5.65854796 32.05322168 -5.21844954 29.26181437 -4.77908325 26.47028923 C-4.16696625 22.58249153 -3.55052514 18.6953864 -2.93359375 14.80834961 C-2.7517453 13.65044418 -2.56989685 12.49253876 -2.38253784 11.29954529 C-2.21432526 10.24416565 -2.04611267 9.18878601 -1.87280273 8.10142517 C-1.72753647 7.1832347 -1.5822702 6.26504423 -1.43260193 5.31902981 C-1 3 -1 3 0 0 Z " fill="#FFFFFF" transform="translate(70,110)"/>
<path d="M0 0 C6.08215891 4.92716308 8.35506505 12.20905295 10.6875 19.4375 C10.77314209 18.87764404 10.85878418 18.31778809 10.94702148 17.7409668 C11.33698061 15.20188792 11.73094516 12.66344632 12.125 10.125 C12.32706055 8.80338867 12.32706055 8.80338867 12.53320312 7.45507812 C12.73139648 6.18374023 12.73139648 6.18374023 12.93359375 4.88671875 C13.05404053 4.10643311 13.1744873 3.32614746 13.29858398 2.5222168 C13.6875 0.4375 13.6875 0.4375 14.6875 -2.5625 C24.9175 -2.5625 35.1475 -2.5625 45.6875 -2.5625 C42.24662654 21.17250466 38.59805178 44.86229958 34.78143311 68.53924561 C33.96574554 73.60327019 33.1535179 78.6678509 32.3406601 83.73233032 C31.12548252 91.301132 29.90611689 98.86924774 28.6875 106.4375 C18.4575 106.4375 8.2275 106.4375 -2.3125 106.4375 C-1.72648852 99.40536222 -1.12911412 92.43704956 -0.3125 85.4375 C-0.725 86.15035156 -1.1375 86.86320312 -1.5625 87.59765625 C-7.91008095 98.1250059 -15.31950789 105.41400495 -27.375 108.6875 C-38.0706851 110.74151565 -49.87352664 110.72459237 -59.48828125 105.18359375 C-67.47377093 99.66443233 -72.05799611 92.69289654 -74.6171875 83.359375 C-78.55415717 61.15309666 -74.12900031 34.84771423 -61.96484375 15.78125 C-48.46467445 -3.36792631 -21.2087049 -13.91574876 0 0 Z M-34.3125 28.4375 C-42.61454748 40.45060096 -44.85247212 57.12787141 -43.3125 71.4375 C-42.06706317 75.7367198 -40.15340071 77.91193705 -36.3125 80.3125 C-27.00778225 83.80176916 -16.96399576 83.63943119 -7.7578125 79.828125 C-0.8000086 75.87129083 2.4481007 69.8678628 4.6875 62.4375 C5.3969466 59.30963769 5.90650131 56.17196653 6.375 53 C6.50455078 52.20529297 6.63410156 51.41058594 6.76757812 50.59179688 C8.02975727 42.38429333 8.93371762 34.90498616 4.6875 27.4375 C-0.63104836 21.97121419 -6.40454867 21.32023063 -13.6875 21.125 C-21.97005337 21.26780264 -28.10315453 22.8034613 -34.3125 28.4375 Z " fill="#FFFFFF" transform="translate(402.3125,145.5625)"/>
<path d="M0 0 C8.12577029 7.76427567 11.10230683 17.67176437 11.36352539 28.69750977 C11.40514227 37.04833575 10.2929387 44.59589847 9 53 C-16.74 53 -42.48 53 -69 53 C-69.36441666 64.14993853 -69.36441666 64.14993853 -64.9375 73.8125 C-58.01921011 78.964418 -50.45024819 79.86882834 -42 79 C-35.47991048 77.78805252 -30.50251914 75.9417893 -26 71 C-25.01 68.36 -24.02 65.72 -23 63 C-13.1 63 -3.2 63 7 63 C3.48152276 77.07390897 -1.45937228 88.56392272 -13.875 96.875 C-30.62741399 106.24443312 -52.15477238 107.81343619 -70.5534668 102.83642578 C-80.89619875 99.71185284 -88.5392239 94.18758281 -94.24609375 84.9921875 C-98.46125624 77.11770813 -99.36590354 69.36015195 -99.3125 60.5625 C-99.30758545 59.59965088 -99.3026709 58.63680176 -99.29760742 57.64477539 C-99.02017407 40.45671223 -95.57171702 23.95352973 -85 10 C-84.2575 8.96875 -83.515 7.9375 -82.75 6.875 C-63.85538786 -12.87845814 -22.00595272 -18.14169115 0 0 Z M-59.45703125 21.25 C-62.72184178 24.95287371 -65 29.02958169 -65 34 C-49.82 34 -34.64 34 -19 34 C-18.61967213 25.556646 -18.61967213 25.556646 -22 19 C-33.03073903 10.49713867 -49.31403727 11.96579498 -59.45703125 21.25 Z " fill="#FFFFFF" transform="translate(789,150)"/>
<path d="M0 0 C10.56 0 21.12 0 32 0 C37.01350367 22.93677927 41.56085943 45.94631201 46 69 C48.029041 66.41096605 49.67234611 63.88845924 51.10961914 60.93188477 C51.49755142 60.13907608 51.8854837 59.3462674 52.28517151 58.5294342 C52.69766647 57.67538498 53.11016144 56.82133575 53.53515625 55.94140625 C53.97331161 55.04244125 54.41146698 54.14347626 54.86289978 53.2172699 C56.26673131 50.33425578 57.66459068 47.44838949 59.0625 44.5625 C59.9755434 42.68666976 60.88895156 40.81101703 61.80273438 38.93554688 C65.52526807 31.28517223 69.23319517 23.62848741 72.87841797 15.94091797 C73.33921249 14.96920151 73.80000702 13.99748505 74.27476501 12.99632263 C75.15625776 11.13426125 76.03570199 9.2712284 76.91285706 7.40711975 C77.30440475 6.57917404 77.69595245 5.75122833 78.09936523 4.89819336 C78.44345932 4.1672496 78.78755341 3.43630585 79.14207458 2.68321228 C80 1 80 1 81 0 C83.3756852 -0.0883967 85.72208674 -0.11530305 88.09765625 -0.09765625 C89.16094398 -0.09553383 89.16094398 -0.09553383 90.24571228 -0.09336853 C92.51801712 -0.08775443 94.79022475 -0.07519963 97.0625 -0.0625 C98.59960796 -0.05748681 100.13671745 -0.05292359 101.67382812 -0.04882812 C105.44925642 -0.03778042 109.22461171 -0.02050641 113 0 C111.64885075 4.42028312 109.90501567 8.321675 107.71875 12.390625 C107.39350845 12.99935455 107.06826691 13.60808411 106.73316956 14.23526001 C105.65963807 16.24245021 104.57974243 18.24614516 103.5 20.25 C102.73571153 21.67695956 101.97196893 23.10421161 101.20874023 24.53173828 C99.61063546 27.52038398 98.01067192 30.50802369 96.40966797 33.49511719 C92.97529599 39.90895914 89.57460049 46.34057847 86.17434692 52.77255249 C85.05717412 54.88507098 83.93880236 56.99695048 82.82006836 59.10864258 C79.35131742 65.65725335 75.88802947 72.20862061 72.44096375 78.76867676 C41.00462826 138.59401567 41.00462826 138.59401567 23.81787109 145.19726562 C18.96916086 146.5785305 14.25426894 146.45968438 9.25 146.3125 C8.24839844 146.30283203 7.24679688 146.29316406 6.21484375 146.28320312 C1.38374966 146.20961692 -3.25344175 145.99290249 -8 145 C-7.52572253 141.22853482 -7.04474135 137.45795448 -6.5625 133.6875 C-6.42779297 132.61564453 -6.29308594 131.54378906 -6.15429688 130.43945312 C-6.02216797 129.41142578 -5.89003906 128.38339844 -5.75390625 127.32421875 C-5.63345947 126.37635498 -5.5130127 125.42849121 -5.38891602 124.4519043 C-5 122 -5 122 -4 119 C-2.91460937 118.96261719 -1.82921875 118.92523438 -0.7109375 118.88671875 C0.73440739 118.82102125 2.17971839 118.75457524 3.625 118.6875 C4.33785156 118.66494141 5.05070313 118.64238281 5.78515625 118.61914062 C10.5014447 118.38116277 14.07249966 117.84386229 18 115 C20.70734704 111.5559642 22.93025282 108.03823918 23.08286476 103.57842255 C22.69976155 100.92036019 22.12655469 98.38673598 21.45629883 95.78613281 C21.12089584 94.31854271 21.12089584 94.31854271 20.77871704 92.82130432 C20.0360805 89.60700594 19.2468652 86.40612066 18.45703125 83.203125 C17.93113318 80.964244 17.40836705 78.72462522 16.88859558 76.48431396 C15.51535923 70.60023227 14.10308151 64.72623629 12.68139648 58.85369873 C10.95961059 51.7126897 9.28053984 44.5615461 7.59878826 37.41102219 C6.29034757 31.84905814 4.9744183 26.28926556 3.63496399 20.73468018 C3.39071182 19.71339523 3.14645966 18.69211029 2.89480591 17.63987732 C2.43940093 15.73608004 1.97979797 13.83327993 1.51515198 11.93171692 C1.31440063 11.08802048 1.11364929 10.24432404 0.90681458 9.37506104 C0.73071057 8.64655064 0.55460657 7.91804024 0.37316608 7.16745377 C0 5 0 5 0 0 Z " fill="#FFFFFF" transform="translate(224,143)"/>
<path d="M0 0 C6.00663459 4.88912118 9.90838592 10.50184896 10.96832275 18.23682785 C11.07668671 20.36010981 11.0839117 22.45405763 11.0390625 24.57958984 C11.02984772 25.35768698 11.02063293 26.13578411 11.01113892 26.93745995 C10.81220634 35.39196823 9.51545998 43.59964106 8.0625 51.9140625 C7.79218058 53.52480054 7.5231642 55.13575774 7.25537109 56.74691772 C6.55803508 60.92136764 5.84342923 65.09266688 5.12475586 69.26348877 C4.39009536 73.54623951 3.67239893 77.83183083 2.953125 82.1171875 C1.5475157 90.47678894 0.12202147 98.83281136 -1.3125 107.1875 C-11.5425 107.1875 -21.7725 107.1875 -32.3125 107.1875 C-31.25051091 97.29807781 -29.93603201 87.5036586 -28.33203125 77.6875 C-28.15396942 76.59203857 -27.97590759 75.49657715 -27.79244995 74.36791992 C-27.05085684 69.81806233 -26.3059381 65.26886229 -25.54516602 60.72216797 C-24.98417238 57.35811347 -24.43825261 53.9918833 -23.89453125 50.625 C-23.72065384 49.60921875 -23.54677643 48.5934375 -23.36763 47.546875 C-22.21885596 40.33458563 -21.24537043 32.66722347 -25.3125 26.1875 C-33.13341876 22.13220879 -41.82322219 21.9171898 -50.25 24.375 C-54.94581166 26.22281036 -57.97655659 28.55608827 -60.3117218 33.15567017 C-63.40126524 40.46630334 -64.67560717 47.76673759 -65.85546875 55.5859375 C-66.07047916 56.95228822 -66.28658969 58.31846624 -66.5037384 59.68447876 C-67.06759362 63.24872042 -67.61771931 66.81493872 -68.16448975 70.38183594 C-68.83294082 74.72646394 -69.51684168 79.06868163 -70.19939899 83.41111183 C-70.72973491 86.78607067 -71.25667745 90.16142971 -71.77714539 93.53793335 C-71.96436661 94.74664093 -72.15158783 95.95534851 -72.34448242 97.20068359 C-72.58952766 98.79425186 -72.58952766 98.79425186 -72.83952332 100.42001343 C-73.22844263 102.69566256 -73.75257158 104.94778632 -74.3125 107.1875 C-84.5425 107.1875 -94.7725 107.1875 -105.3125 107.1875 C-103.90914107 94.53152783 -102.10784035 81.98898646 -100.08984375 69.41796875 C-99.78096428 67.4789064 -99.47233985 65.53980341 -99.16395569 63.60066223 C-98.52314122 59.57579713 -97.88004596 55.55130589 -97.23510742 51.52709961 C-96.40881839 46.37082209 -95.58720906 41.21381226 -94.76712704 36.0565443 C-94.13286554 32.0698242 -93.49676861 28.08339877 -92.86004829 24.09707069 C-92.55621024 22.19413404 -92.25280453 20.2911283 -91.94984245 18.38805199 C-91.52815598 15.74172985 -91.10414212 13.09579131 -90.67944336 10.44995117 C-90.55527039 9.66817505 -90.43109741 8.88639893 -90.30316162 8.08093262 C-89.76310219 4.73059037 -89.13648587 1.48344348 -88.3125 -1.8125 C-78.0825 -1.8125 -67.8525 -1.8125 -57.3125 -1.8125 C-57.92011595 4.87127547 -58.54781868 11.52384853 -59.3125 18.1875 C-58.69375 17.11822266 -58.69375 17.11822266 -58.0625 16.02734375 C-51.97718016 5.93494946 -45.81666082 -0.45862239 -34.3125 -3.8125 C-22.53601486 -6.23232571 -10.63129474 -5.81712354 0 0 Z " fill="#FFFFFF" transform="translate(555.3125,144.8125)"/>
<path d="M0 0 C6.1425616 5.59012565 9.45939158 12.39852039 11.07421875 20.47265625 C11.07421875 25.09265625 11.07421875 29.71265625 11.07421875 34.47265625 C1.17421875 34.47265625 -8.72578125 34.47265625 -18.92578125 34.47265625 C-19.25578125 31.17265625 -19.58578125 27.87265625 -19.92578125 24.47265625 C-22.98660931 20.2749492 -25.86443007 18.48492649 -30.92578125 17.47265625 C-39.74652932 16.7669964 -47.09601326 17.57479545 -54.73828125 22.16015625 C-64.13596562 32.09485115 -65.17286426 49.28706894 -66.23828125 62.28515625 C-65.83613791 66.38701832 -65.02480761 69.89653727 -62.92578125 73.47265625 C-55.76089288 79.29412805 -48.81312039 78.99544091 -39.92578125 78.47265625 C-34.26022567 77.50319698 -30.9273872 75.01036412 -27.25 70.6796875 C-25.3488985 67.511185 -24.22320945 63.93246478 -22.92578125 60.47265625 C-13.35578125 60.47265625 -3.78578125 60.47265625 6.07421875 60.47265625 C5.30678428 67.37956646 4.61646714 71.61259949 1.57421875 77.47265625 C1.2189209 78.16472168 0.86362305 78.85678711 0.49755859 79.56982422 C-5.90215359 91.48373625 -15.85959938 98.69462827 -28.61328125 102.78515625 C-44.61819073 107.50889666 -63.67868254 107.32561715 -78.80078125 99.84765625 C-87.24645322 94.81010522 -92.81935495 87.75923594 -95.92578125 78.47265625 C-96.15007813 77.82296875 -96.374375 77.17328125 -96.60546875 76.50390625 C-101.76119712 58.1410381 -97.0881267 33.90633767 -88.29296875 17.41015625 C-79.92990306 3.60922273 -68.8263839 -3.63984246 -53.25 -7.80078125 C-35.70797736 -11.63487785 -14.60631575 -11.58431939 0 0 Z " fill="#FFFFFF" transform="translate(673.92578125,149.52734375)"/>
<path d="M0 0 C1.81631676 0.00424484 1.81631676 0.00424484 3.66932678 0.00857544 C7.52053893 0.0197322 11.37151489 0.04482895 15.22265625 0.0703125 C17.84049142 0.0803481 20.45833026 0.08947294 23.07617188 0.09765625 C29.47924667 0.11965683 35.88218458 0.15308974 42.28515625 0.1953125 C40.90507113 3.04242591 39.524482 5.27128946 37.41015625 7.6328125 C36.78882813 8.32761719 36.1675 9.02242187 35.52734375 9.73828125 C31.31626455 14.35286107 27.07723904 18.94120701 22.83154297 23.52392578 C17.12807447 29.68842615 11.45466628 35.88039125 5.84765625 42.1328125 C1.85067247 46.5874116 -2.20558784 50.98449729 -6.27099609 55.37646484 C-10.03211802 59.44412838 -13.74693914 63.5509288 -17.4453125 67.67578125 C-22.30040784 73.06568916 -27.22263917 78.39483055 -32.13085938 83.73632812 C-36.82722495 88.84841624 -41.51809515 93.96416406 -46.15234375 99.1328125 C-49.72964941 103.1161907 -53.33789625 107.06968213 -56.96484375 111.0078125 C-57.46040771 111.54720459 -57.95597168 112.08659668 -58.46655273 112.64233398 C-66.91455972 121.79517049 -66.91455972 121.79517049 -69.71484375 123.1953125 C-71.89309336 123.28090368 -74.0739963 123.30244662 -76.25390625 123.29296875 C-78.20683594 123.28813477 -78.20683594 123.28813477 -80.19921875 123.28320312 C-81.57942774 123.27484716 -82.95963607 123.26638221 -84.33984375 123.2578125 C-85.72786301 123.25279751 -87.11588397 123.2482346 -88.50390625 123.24414062 C-91.90759507 123.23232226 -95.31119814 123.21584684 -98.71484375 123.1953125 C-97.10676382 119.02435518 -95.10118436 115.3388405 -92.71484375 111.5703125 C-92.29332031 110.89935547 -91.87179687 110.22839844 -91.4375 109.53710938 C-86.5981592 101.90274765 -81.54447552 94.40885721 -76.51220703 86.90106201 C-72.1496202 80.39113962 -67.80961599 73.87856576 -63.71484375 67.1953125 C-58.87025126 59.28824547 -53.68310032 51.61200341 -48.51889038 43.91213989 C-43.91782116 37.04883194 -39.36330586 30.16813207 -35.02734375 23.1328125 C-22.33095721 2.54436485 -22.33095721 2.54436485 -14.97949219 0.58850098 C-10.03508384 -0.26994767 -5.00201458 -0.04424747 0 0 Z " fill="#FFFFFF" transform="translate(989.71484375,211.8046875)"/>
<path d="M0 0 C4.12550869 -0.17445227 8.24955996 -0.30070887 12.37792969 -0.38452148 C13.77870116 -0.41949242 15.17922142 -0.46709032 16.57910156 -0.52807617 C29.69448227 -1.0846847 29.69448227 -1.0846847 34.62890625 3.1640625 C35.78803965 4.41067469 36.91506936 5.6882997 38 7 C38.95398439 7.98862628 39.91078296 8.97454903 40.87109375 9.95703125 C41.71800781 10.89933594 42.56492187 11.84164062 43.4375 12.8125 C43.90285156 13.32748047 44.36820313 13.84246094 44.84765625 14.37304688 C46.2362023 15.91144967 47.61862709 17.45515702 49 19 C50.49986026 20.66679243 51.99985174 22.33346678 53.5 24 C54.22445312 24.80695313 54.94890625 25.61390625 55.6953125 26.4453125 C60.09832536 31.32594032 64.55252509 36.15992041 69 41 C79.36190257 52.27660846 79.36190257 52.27660846 84.4375 57.9375 C87.92448097 61.82370598 91.45331985 65.66842807 95 69.5 C99.28224608 74.12622317 103.52207812 78.78678623 107.73046875 83.48046875 C112.11871554 88.35210245 116.56373809 93.17212324 121 98 C123.78289929 101.02856213 126.56477912 104.05800509 129.33984375 107.09375 C131.11803752 109.03644628 132.901937 110.97393487 134.69140625 112.90625 C135.51511719 113.8034375 136.33882812 114.700625 137.1875 115.625 C137.92355469 116.42164063 138.65960937 117.21828125 139.41796875 118.0390625 C141 120 141 120 141 122 C133.55874675 122.09295177 126.11762004 122.16389171 118.67590237 122.20724869 C115.21984185 122.22806504 111.76418046 122.25627153 108.30834961 122.30175781 C104.32931403 122.35379891 100.35043634 122.37299459 96.37109375 122.390625 C95.13854355 122.41127014 93.90599335 122.43191528 92.63609314 122.45318604 C85.8678169 122.45494782 81.39419297 122.25280774 76 118 C73.94287109 115.66015625 73.94287109 115.66015625 72.2734375 113.0625 C71.64091064 112.09538086 71.00838379 111.12826172 70.35668945 110.13183594 C69.37575317 108.58157715 69.37575317 108.58157715 68.375 107 C67.67914795 105.92782227 66.9832959 104.85564453 66.26635742 103.75097656 C64.84307224 101.5550044 63.4262962 99.35479952 62.01611328 97.15039062 C60.20114647 94.31431267 58.36989276 91.49008024 56.52734375 88.671875 C53.86306007 84.59584101 51.21270844 80.51103651 48.56787109 76.42236328 C45.92584941 72.34043566 43.27526063 68.26408125 40.625 64.1875 C40.09366455 63.36991211 39.5623291 62.55232422 39.01489258 61.70996094 C34.22018526 54.33392952 29.41396546 46.96542573 24.60620117 39.59790039 C21.52340843 34.87281625 18.44352565 30.14589157 15.37109375 25.4140625 C14.79230469 24.52267578 14.21351563 23.63128906 13.6171875 22.71289062 C12.53986325 21.05305966 11.46299908 19.39292994 10.38671875 17.73242188 C9.896875 16.97767578 9.40703125 16.22292969 8.90234375 15.4453125 C8.43038574 14.71731445 7.95842773 13.98931641 7.47216797 13.23925781 C6.42804897 11.65108875 5.36810679 10.07327162 4.29736328 8.50292969 C3.47147705 7.2910498 3.47147705 7.2910498 2.62890625 6.0546875 C2.12560791 5.32491699 1.62230957 4.59514648 1.10375977 3.84326172 C0 2 0 2 0 0 Z " fill="#FFFFFF" transform="translate(891,67)"/>
<path d="M0 0 C10.23 0 20.46 0 31 0 C28.80438838 16.58842588 26.31443498 33.11531987 23.6901679 49.64080071 C23.25178863 52.402867 22.81479919 55.16515257 22.37774575 57.9274289 C21.34862546 64.43122239 20.31695662 70.93460799 19.28369141 77.43774414 C18.21914245 84.13812458 17.15946812 90.83926402 16.10198677 97.5407632 C15.18850246 103.32847729 14.2718779 109.11568813 13.35273659 114.90250653 C12.8059364 118.34538501 12.26038344 121.78844958 11.71795273 125.23201942 C11.1171663 129.04514239 10.50984805 132.85720848 9.90185547 136.66918945 C9.72314911 137.80922424 9.54444275 138.94925903 9.36032104 140.12384033 C9.19499878 141.15360489 9.02967651 142.18336945 8.85934448 143.24433899 C8.71667585 144.14401052 8.57400723 145.04368204 8.4270153 145.97061634 C8 148 8 148 7 149 C4.70848583 149.08790975 2.41427476 149.10694038 0.12109375 149.09765625 C-0.90889992 149.09553383 -0.90889992 149.09553383 -1.95970154 149.09336853 C-4.16067801 149.08775479 -6.36155409 149.07520007 -8.5625 149.0625 C-10.05143083 149.05748676 -11.54036324 149.05292355 -13.02929688 149.04882812 C-16.68623075 149.03778093 -20.34310558 149.02050713 -24 149 C-23.08468016 143.17837838 -22.16930427 137.35676558 -21.25390625 131.53515625 C-21.0409107 130.18055392 -21.0409107 130.18055392 -20.82361221 128.79858589 C-19.09577374 117.81010941 -17.36740815 106.82171612 -15.63793945 95.83349609 C-15.15612203 92.77216108 -14.67430611 89.71082582 -14.19249153 86.64949036 C-13.87074762 84.60522824 -13.5489944 82.56096758 -13.22723198 80.51670837 C-11.40393091 68.93218711 -9.58296733 57.347308 -7.76850891 45.76139832 C-6.93297597 40.42645504 -6.09523657 35.09185899 -5.2572937 29.7572937 C-4.8783857 27.34184904 -4.50039029 24.92626103 -4.12332153 22.51052856 C-3.6092508 19.21759131 -3.09212237 15.92514874 -2.57421875 12.6328125 C-2.42695343 11.68398697 -2.27968811 10.73516144 -2.12796021 9.75758362 C-1.99251801 8.90059372 -1.85707581 8.04360382 -1.7175293 7.16064453 C-1.60209274 6.42314972 -1.48665619 5.68565491 -1.36772156 4.92581177 C-1 3 -1 3 0 0 Z " fill="#FFFFFF" transform="translate(191,103)"/>
<path d="M0 0 C29.28661486 -2.94411476 29.28661486 -2.94411476 37.1953125 3.2578125 C40.68276104 6.73578763 43.55411613 10.63001592 46.33935547 14.68261719 C48.9576553 18.33638108 52.06194902 21.4694923 55.1875 24.6875 C56.32447588 25.90358113 57.45862016 27.12231615 58.58984375 28.34375 C60.94600327 30.87517233 63.31486359 33.39395853 65.69140625 35.90625 C66.28864502 36.54087158 66.88588379 37.17549316 67.5012207 37.8293457 C68.63540897 39.03447022 69.7730678 40.23634149 70.91479492 41.43432617 C76.14938096 47.01450621 77.62312487 50.53338002 77.421875 58.140625 C76.12862197 66.90600662 68.19332617 73.05859441 62.09765625 78.91015625 C59.17430352 81.75714576 56.52010768 84.79617529 53.85424805 87.88305664 C50.62248806 91.57266702 47.24434015 95.12389733 43.875 98.6875 C43.18535156 99.42033203 42.49570312 100.15316406 41.78515625 100.90820312 C39.86346799 102.9456336 37.94175168 104.9816715 36 107 C35.24775146 107.89589844 34.49550293 108.79179687 33.72045898 109.71484375 C30.19459096 112.67653492 28.28596653 112.58201577 23.73046875 112.48828125 C23.04946609 112.48120651 22.36846344 112.47413177 21.66682434 112.46684265 C19.50590005 112.43900069 17.34763178 112.37629527 15.1875 112.3125 C13.71683448 112.28740332 12.24612807 112.26459253 10.77539062 112.24414062 C7.18274043 112.18921188 3.59162972 112.10301647 0 112 C4.7188572 102.92211131 10.55114434 94.62192116 16.3125 86.1875 C17.33044033 84.69230382 18.34802093 83.19686267 19.36523438 81.70117188 C20.11206985 80.60363083 20.11206985 80.60363083 20.87399292 79.48391724 C21.85982778 78.03361823 22.8444851 76.58251803 23.82791138 75.13058472 C26.04118825 71.86478116 28.26650731 68.61142601 30.54833984 65.39306641 C31.28906738 64.3313623 32.02979492 63.2696582 32.79296875 62.17578125 C33.44160889 61.26352783 34.09024902 60.35127441 34.75854492 59.41137695 C36.15422609 57.16817451 36.15422609 57.16817451 35.96557617 55.08520508 C34.53719291 52.00054731 32.67904275 49.25198238 30.7578125 46.4609375 C30.31784943 45.81160248 29.87788635 45.16226746 29.42459106 44.49325562 C28.46380871 43.07645723 27.50042708 41.66141888 26.53479004 40.2479248 C24.96206537 37.94443918 23.39747101 35.63562034 21.83496094 33.32519531 C19.63644381 30.07503097 17.43647582 26.82586249 15.234375 23.578125 C14.68330078 22.76537109 14.13222656 21.95261719 13.56445312 21.11523438 C12.42086275 19.42959538 11.27663855 17.74438625 10.13183594 16.05957031 C8.45820885 13.59580265 6.78745073 11.13011139 5.1171875 8.6640625 C4.34397659 7.5283934 4.34397659 7.5283934 3.55514526 6.36978149 C0 1.11364125 0 1.11364125 0 0 Z " fill="#FFFFFF" transform="translate(833,145)"/>
</svg>
